<mxfile host="app.diagrams.net" modified="2020-10-23T21:17:44.630Z" agent="5.0 (Windows NT 10.0; Win64; x64) AppleWebKit/537.36 (KHTML, like Gecko) Chrome/86.0.4240.111 Safari/537.36" etag="gWMahMYmmYXle9ADP4xe" version="13.8.1" type="github">
  <diagram id="mY3ai3RLTCJlW_Cb4YzI" name="Página-1">
    <mxGraphModel dx="1422" dy="794" grid="1" gridSize="10" guides="1" tooltips="1" connect="1" arrows="1" fold="1" page="1" pageScale="1" pageWidth="827" pageHeight="1169" math="0" shadow="0">
      <root>
        <mxCell id="0" />
        <mxCell id="1" parent="0" />
        <mxCell id="6GbueaTRG2UG5kY5iU6A-3" style="edgeStyle=orthogonalEdgeStyle;rounded=0;orthogonalLoop=1;jettySize=auto;html=1;exitX=0.5;exitY=1;exitDx=0;exitDy=0;exitPerimeter=0;entryX=0.5;entryY=0;entryDx=0;entryDy=0;" edge="1" parent="1" source="6GbueaTRG2UG5kY5iU6A-1" target="6GbueaTRG2UG5kY5iU6A-2">
          <mxGeometry relative="1" as="geometry">
            <Array as="points">
              <mxPoint x="120" y="175" />
              <mxPoint x="125" y="175" />
            </Array>
          </mxGeometry>
        </mxCell>
        <mxCell id="6GbueaTRG2UG5kY5iU6A-1" value="Start" style="strokeWidth=2;html=1;shape=mxgraph.flowchart.start_2;whiteSpace=wrap;fillColor=#dae8fc;strokeColor=#6c8ebf;" vertex="1" parent="1">
          <mxGeometry x="70" y="10" width="160" height="110" as="geometry" />
        </mxCell>
        <mxCell id="6GbueaTRG2UG5kY5iU6A-5" style="edgeStyle=orthogonalEdgeStyle;rounded=0;orthogonalLoop=1;jettySize=auto;html=1;exitX=1;exitY=0.5;exitDx=0;exitDy=0;entryX=0;entryY=0.5;entryDx=0;entryDy=0;" edge="1" parent="1" source="6GbueaTRG2UG5kY5iU6A-21" target="6GbueaTRG2UG5kY5iU6A-7">
          <mxGeometry relative="1" as="geometry">
            <mxPoint x="260" y="210" as="targetPoint" />
          </mxGeometry>
        </mxCell>
        <mxCell id="6GbueaTRG2UG5kY5iU6A-23" value="SIM" style="edgeLabel;html=1;align=center;verticalAlign=middle;resizable=0;points=[];" vertex="1" connectable="0" parent="6GbueaTRG2UG5kY5iU6A-5">
          <mxGeometry x="-0.6536" y="2" relative="1" as="geometry">
            <mxPoint as="offset" />
          </mxGeometry>
        </mxCell>
        <mxCell id="6GbueaTRG2UG5kY5iU6A-2" value="Construir mecanica de angulação de chute" style="rounded=1;whiteSpace=wrap;html=1;absoluteArcSize=1;arcSize=14;strokeWidth=2;" vertex="1" parent="1">
          <mxGeometry x="40" y="210" width="130" height="140" as="geometry" />
        </mxCell>
        <mxCell id="6GbueaTRG2UG5kY5iU6A-20" style="edgeStyle=orthogonalEdgeStyle;rounded=0;orthogonalLoop=1;jettySize=auto;html=1;entryX=0.5;entryY=0;entryDx=0;entryDy=0;entryPerimeter=0;" edge="1" parent="1" source="6GbueaTRG2UG5kY5iU6A-4" target="6GbueaTRG2UG5kY5iU6A-19">
          <mxGeometry relative="1" as="geometry" />
        </mxCell>
        <mxCell id="6GbueaTRG2UG5kY5iU6A-4" value="Chutar" style="rounded=1;whiteSpace=wrap;html=1;absoluteArcSize=1;arcSize=14;strokeWidth=2;" vertex="1" parent="1">
          <mxGeometry x="470" y="520" width="130" height="120" as="geometry" />
        </mxCell>
        <mxCell id="6GbueaTRG2UG5kY5iU6A-12" style="edgeStyle=orthogonalEdgeStyle;rounded=0;orthogonalLoop=1;jettySize=auto;html=1;entryX=0.5;entryY=0;entryDx=0;entryDy=0;entryPerimeter=0;" edge="1" parent="1" source="6GbueaTRG2UG5kY5iU6A-7" target="6GbueaTRG2UG5kY5iU6A-8">
          <mxGeometry relative="1" as="geometry" />
        </mxCell>
        <mxCell id="6GbueaTRG2UG5kY5iU6A-7" value="Mecanica de verificação de força" style="rounded=1;whiteSpace=wrap;html=1;absoluteArcSize=1;arcSize=14;strokeWidth=2;" vertex="1" parent="1">
          <mxGeometry x="414" y="110" width="130" height="130" as="geometry" />
        </mxCell>
        <mxCell id="6GbueaTRG2UG5kY5iU6A-10" style="edgeStyle=orthogonalEdgeStyle;rounded=0;orthogonalLoop=1;jettySize=auto;html=1;" edge="1" parent="1" source="6GbueaTRG2UG5kY5iU6A-8" target="6GbueaTRG2UG5kY5iU6A-9">
          <mxGeometry relative="1" as="geometry" />
        </mxCell>
        <mxCell id="6GbueaTRG2UG5kY5iU6A-11" value="SIM" style="edgeLabel;html=1;align=center;verticalAlign=middle;resizable=0;points=[];" vertex="1" connectable="0" parent="6GbueaTRG2UG5kY5iU6A-10">
          <mxGeometry x="-0.4381" y="-1" relative="1" as="geometry">
            <mxPoint as="offset" />
          </mxGeometry>
        </mxCell>
        <mxCell id="6GbueaTRG2UG5kY5iU6A-14" style="edgeStyle=orthogonalEdgeStyle;rounded=0;orthogonalLoop=1;jettySize=auto;html=1;exitX=1;exitY=0.5;exitDx=0;exitDy=0;exitPerimeter=0;entryX=0.5;entryY=1;entryDx=0;entryDy=0;" edge="1" parent="1" source="6GbueaTRG2UG5kY5iU6A-8" target="6GbueaTRG2UG5kY5iU6A-13">
          <mxGeometry relative="1" as="geometry" />
        </mxCell>
        <mxCell id="6GbueaTRG2UG5kY5iU6A-15" value="NÃO&lt;br&gt;" style="edgeLabel;html=1;align=center;verticalAlign=middle;resizable=0;points=[];" vertex="1" connectable="0" parent="6GbueaTRG2UG5kY5iU6A-14">
          <mxGeometry x="-0.2895" relative="1" as="geometry">
            <mxPoint as="offset" />
          </mxGeometry>
        </mxCell>
        <mxCell id="6GbueaTRG2UG5kY5iU6A-8" value="Verificação foi ok?" style="strokeWidth=2;html=1;shape=mxgraph.flowchart.decision;whiteSpace=wrap;" vertex="1" parent="1">
          <mxGeometry x="360" y="375" width="160" height="130" as="geometry" />
        </mxCell>
        <mxCell id="6GbueaTRG2UG5kY5iU6A-18" style="edgeStyle=orthogonalEdgeStyle;rounded=0;orthogonalLoop=1;jettySize=auto;html=1;entryX=0.008;entryY=0.558;entryDx=0;entryDy=0;entryPerimeter=0;" edge="1" parent="1" source="6GbueaTRG2UG5kY5iU6A-9" target="6GbueaTRG2UG5kY5iU6A-4">
          <mxGeometry relative="1" as="geometry" />
        </mxCell>
        <mxCell id="6GbueaTRG2UG5kY5iU6A-9" value="Animação de flecha de força" style="rounded=1;whiteSpace=wrap;html=1;absoluteArcSize=1;arcSize=14;strokeWidth=2;" vertex="1" parent="1">
          <mxGeometry x="240" y="530" width="110" height="90" as="geometry" />
        </mxCell>
        <mxCell id="6GbueaTRG2UG5kY5iU6A-16" style="edgeStyle=orthogonalEdgeStyle;rounded=0;orthogonalLoop=1;jettySize=auto;html=1;entryX=1;entryY=0.5;entryDx=0;entryDy=0;" edge="1" parent="1" source="6GbueaTRG2UG5kY5iU6A-13" target="6GbueaTRG2UG5kY5iU6A-7">
          <mxGeometry relative="1" as="geometry">
            <mxPoint x="420" y="190" as="targetPoint" />
          </mxGeometry>
        </mxCell>
        <mxCell id="6GbueaTRG2UG5kY5iU6A-13" value="Verificação de Bugs" style="rounded=1;whiteSpace=wrap;html=1;absoluteArcSize=1;arcSize=14;strokeWidth=2;" vertex="1" parent="1">
          <mxGeometry x="600" y="190" width="180" height="130" as="geometry" />
        </mxCell>
        <mxCell id="6GbueaTRG2UG5kY5iU6A-19" value="End" style="strokeWidth=2;html=1;shape=mxgraph.flowchart.terminator;whiteSpace=wrap;" vertex="1" parent="1">
          <mxGeometry x="485" y="700" width="100" height="60" as="geometry" />
        </mxCell>
        <mxCell id="6GbueaTRG2UG5kY5iU6A-25" style="edgeStyle=orthogonalEdgeStyle;rounded=0;orthogonalLoop=1;jettySize=auto;html=1;entryX=1;entryY=0.5;entryDx=0;entryDy=0;exitX=0.5;exitY=1;exitDx=0;exitDy=0;exitPerimeter=0;" edge="1" parent="1" source="6GbueaTRG2UG5kY5iU6A-21" target="6GbueaTRG2UG5kY5iU6A-24">
          <mxGeometry relative="1" as="geometry">
            <Array as="points">
              <mxPoint x="295" y="390" />
              <mxPoint x="210" y="390" />
              <mxPoint x="210" y="440" />
            </Array>
          </mxGeometry>
        </mxCell>
        <mxCell id="6GbueaTRG2UG5kY5iU6A-21" value="A mecanica foi ok?" style="strokeWidth=2;html=1;shape=mxgraph.flowchart.decision;whiteSpace=wrap;" vertex="1" parent="1">
          <mxGeometry x="230" y="230" width="130" height="120" as="geometry" />
        </mxCell>
        <mxCell id="6GbueaTRG2UG5kY5iU6A-22" style="edgeStyle=orthogonalEdgeStyle;rounded=0;orthogonalLoop=1;jettySize=auto;html=1;exitX=1;exitY=0.5;exitDx=0;exitDy=0;entryX=0;entryY=0.5;entryDx=0;entryDy=0;" edge="1" parent="1" source="6GbueaTRG2UG5kY5iU6A-2" target="6GbueaTRG2UG5kY5iU6A-21">
          <mxGeometry relative="1" as="geometry">
            <mxPoint x="170" y="280" as="sourcePoint" />
            <mxPoint x="414" y="175" as="targetPoint" />
          </mxGeometry>
        </mxCell>
        <mxCell id="6GbueaTRG2UG5kY5iU6A-26" style="edgeStyle=orthogonalEdgeStyle;rounded=0;orthogonalLoop=1;jettySize=auto;html=1;entryX=0.392;entryY=1.014;entryDx=0;entryDy=0;entryPerimeter=0;" edge="1" parent="1" source="6GbueaTRG2UG5kY5iU6A-24" target="6GbueaTRG2UG5kY5iU6A-2">
          <mxGeometry relative="1" as="geometry" />
        </mxCell>
        <mxCell id="6GbueaTRG2UG5kY5iU6A-24" value="Verificação de Bugs" style="rounded=1;whiteSpace=wrap;html=1;absoluteArcSize=1;arcSize=14;strokeWidth=2;" vertex="1" parent="1">
          <mxGeometry x="40" y="390" width="100" height="100" as="geometry" />
        </mxCell>
      </root>
    </mxGraphModel>
  </diagram>
</mxfile>
